<mxfile host="app.diagrams.net" modified="2022-01-22T09:16:44.047Z" agent="5.0 (Macintosh; Intel Mac OS X 10_15_7) AppleWebKit/605.1.15 (KHTML, like Gecko) Version/14.1.1 Safari/605.1.15" etag="UnBMwaECmwoAUIcE2ecD" version="16.4.5" type="github">
  <diagram id="68E6v7l694ZQUN3B69pd" name="Page-1">
    <mxGraphModel dx="1773" dy="1727" grid="1" gridSize="10" guides="1" tooltips="1" connect="1" arrows="1" fold="1" page="1" pageScale="1" pageWidth="827" pageHeight="1169" math="0" shadow="0">
      <root>
        <mxCell id="0" />
        <mxCell id="1" parent="0" />
        <mxCell id="euC7mVPJG6KUoin1qul2-3" value="1" style="rounded=0;whiteSpace=wrap;html=1;fillColor=#ffcd28;gradientColor=#ffa500;strokeColor=#d79b00;fontSize=16;" vertex="1" parent="1">
          <mxGeometry x="-60" y="213.1914893617021" width="85.33333333333333" height="43.40425531914893" as="geometry" />
        </mxCell>
        <mxCell id="euC7mVPJG6KUoin1qul2-4" value="2" style="rounded=0;whiteSpace=wrap;html=1;fillColor=#ffcd28;gradientColor=#ffa500;strokeColor=#d79b00;fontSize=16;" vertex="1" parent="1">
          <mxGeometry x="25.33333333333333" y="213.1914893617021" width="85.33333333333333" height="43.40425531914893" as="geometry" />
        </mxCell>
        <mxCell id="euC7mVPJG6KUoin1qul2-5" value="3" style="rounded=0;whiteSpace=wrap;html=1;fillColor=#ffcd28;gradientColor=#ffa500;strokeColor=#d79b00;fontSize=16;" vertex="1" parent="1">
          <mxGeometry x="196" y="213.1914893617021" width="85.33333333333333" height="43.40425531914893" as="geometry" />
        </mxCell>
        <mxCell id="euC7mVPJG6KUoin1qul2-6" value="4" style="rounded=0;whiteSpace=wrap;html=1;fillColor=#ffcd28;gradientColor=#ffa500;strokeColor=#d79b00;fontSize=16;" vertex="1" parent="1">
          <mxGeometry x="281.3333333333333" y="213.1914893617021" width="85.33333333333333" height="43.40425531914893" as="geometry" />
        </mxCell>
        <mxCell id="euC7mVPJG6KUoin1qul2-7" value="5" style="rounded=0;whiteSpace=wrap;html=1;fillColor=#ffcd28;gradientColor=#ffa500;strokeColor=#d79b00;fontSize=16;" vertex="1" parent="1">
          <mxGeometry x="452" y="213.1914893617021" width="85.33333333333333" height="43.40425531914893" as="geometry" />
        </mxCell>
        <mxCell id="euC7mVPJG6KUoin1qul2-8" style="edgeStyle=none;rounded=0;orthogonalLoop=1;jettySize=auto;html=1;exitX=1;exitY=1;exitDx=0;exitDy=0;fontSize=16;" edge="1" parent="1" source="euC7mVPJG6KUoin1qul2-9">
          <mxGeometry relative="1" as="geometry">
            <mxPoint x="686.6666666666665" y="256.5957446808511" as="targetPoint" />
          </mxGeometry>
        </mxCell>
        <mxCell id="euC7mVPJG6KUoin1qul2-9" value="6" style="rounded=0;whiteSpace=wrap;html=1;fillColor=#ffcd28;gradientColor=#ffa500;strokeColor=#d79b00;fontSize=16;" vertex="1" parent="1">
          <mxGeometry x="537.3333333333334" y="213.1914893617021" width="85.33333333333333" height="43.40425531914893" as="geometry" />
        </mxCell>
        <mxCell id="euC7mVPJG6KUoin1qul2-10" value="......." style="rounded=0;whiteSpace=wrap;html=1;fontSize=16;" vertex="1" parent="1">
          <mxGeometry x="686.6666666666666" y="234.89361702127655" width="128" height="43.40425531914893" as="geometry" />
        </mxCell>
        <mxCell id="euC7mVPJG6KUoin1qul2-11" value="张某" style="rounded=0;whiteSpace=wrap;html=1;fontSize=16;fillColor=#d5e8d4;gradientColor=#97d077;strokeColor=#82b366;" vertex="1" parent="1">
          <mxGeometry x="-60" y="256.595744680851" width="85.33333333333333" height="43.40425531914893" as="geometry" />
        </mxCell>
        <mxCell id="euC7mVPJG6KUoin1qul2-12" value="林某" style="rounded=0;whiteSpace=wrap;html=1;fontSize=16;fillColor=#d5e8d4;gradientColor=#97d077;strokeColor=#82b366;" vertex="1" parent="1">
          <mxGeometry x="25.33333333333333" y="256.595744680851" width="85.33333333333333" height="43.40425531914893" as="geometry" />
        </mxCell>
        <mxCell id="euC7mVPJG6KUoin1qul2-13" value="陈某" style="rounded=0;whiteSpace=wrap;html=1;fontSize=16;fillColor=#d5e8d4;gradientColor=#97d077;strokeColor=#82b366;" vertex="1" parent="1">
          <mxGeometry x="196" y="256.595744680851" width="85.33333333333333" height="43.40425531914893" as="geometry" />
        </mxCell>
        <mxCell id="euC7mVPJG6KUoin1qul2-14" style="edgeStyle=none;rounded=0;orthogonalLoop=1;jettySize=auto;html=1;entryX=0;entryY=0;entryDx=0;entryDy=0;exitX=1;exitY=0;exitDx=0;exitDy=0;fontSize=16;" edge="1" parent="1" source="euC7mVPJG6KUoin1qul2-12" target="euC7mVPJG6KUoin1qul2-13">
          <mxGeometry relative="1" as="geometry" />
        </mxCell>
        <mxCell id="euC7mVPJG6KUoin1qul2-15" value="周某" style="rounded=0;whiteSpace=wrap;html=1;fontSize=16;fillColor=#d5e8d4;gradientColor=#97d077;strokeColor=#82b366;" vertex="1" parent="1">
          <mxGeometry x="281.3333333333333" y="256.595744680851" width="85.33333333333333" height="43.40425531914893" as="geometry" />
        </mxCell>
        <mxCell id="euC7mVPJG6KUoin1qul2-16" value="曾某" style="rounded=0;whiteSpace=wrap;html=1;fontSize=16;fillColor=#d5e8d4;gradientColor=#97d077;strokeColor=#82b366;" vertex="1" parent="1">
          <mxGeometry x="452" y="256.595744680851" width="85.33333333333333" height="43.40425531914893" as="geometry" />
        </mxCell>
        <mxCell id="euC7mVPJG6KUoin1qul2-17" style="edgeStyle=none;rounded=0;orthogonalLoop=1;jettySize=auto;html=1;entryX=0;entryY=0;entryDx=0;entryDy=0;exitX=1;exitY=0;exitDx=0;exitDy=0;fontSize=16;" edge="1" parent="1" source="euC7mVPJG6KUoin1qul2-15" target="euC7mVPJG6KUoin1qul2-16">
          <mxGeometry relative="1" as="geometry" />
        </mxCell>
        <mxCell id="euC7mVPJG6KUoin1qul2-18" value="黄某" style="rounded=0;whiteSpace=wrap;html=1;fontSize=16;fillColor=#d5e8d4;gradientColor=#97d077;strokeColor=#82b366;" vertex="1" parent="1">
          <mxGeometry x="537.3333333333334" y="256.595744680851" width="85.33333333333333" height="43.40425531914893" as="geometry" />
        </mxCell>
        <mxCell id="euC7mVPJG6KUoin1qul2-19" style="rounded=0;orthogonalLoop=1;jettySize=auto;html=1;exitX=0.5;exitY=1;exitDx=0;exitDy=0;entryX=1;entryY=0;entryDx=0;entryDy=0;fontSize=16;" edge="1" parent="1" source="euC7mVPJG6KUoin1qul2-21" target="euC7mVPJG6KUoin1qul2-3">
          <mxGeometry relative="1" as="geometry" />
        </mxCell>
        <mxCell id="euC7mVPJG6KUoin1qul2-20" value="1" style="rounded=0;whiteSpace=wrap;html=1;fillColor=#ffcd28;gradientColor=#ffa500;strokeColor=#d79b00;fontSize=16;" vertex="1" parent="1">
          <mxGeometry x="25.33333333333333" y="82.97872340425528" width="85.33333333333333" height="43.40425531914893" as="geometry" />
        </mxCell>
        <mxCell id="euC7mVPJG6KUoin1qul2-21" value="" style="rounded=0;whiteSpace=wrap;html=1;fontSize=16;" vertex="1" parent="1">
          <mxGeometry x="110.66666666666666" y="82.97872340425528" width="85.33333333333333" height="43.40425531914893" as="geometry" />
        </mxCell>
        <mxCell id="euC7mVPJG6KUoin1qul2-22" value="3" style="rounded=0;whiteSpace=wrap;html=1;fillColor=#ffcd28;gradientColor=#ffa500;strokeColor=#d79b00;fontSize=16;" vertex="1" parent="1">
          <mxGeometry x="196" y="82.97872340425528" width="85.33333333333333" height="43.40425531914893" as="geometry" />
        </mxCell>
        <mxCell id="euC7mVPJG6KUoin1qul2-23" style="edgeStyle=none;rounded=0;orthogonalLoop=1;jettySize=auto;html=1;entryX=0;entryY=0;entryDx=0;entryDy=0;fontSize=16;" edge="1" parent="1" source="euC7mVPJG6KUoin1qul2-24" target="euC7mVPJG6KUoin1qul2-6">
          <mxGeometry relative="1" as="geometry" />
        </mxCell>
        <mxCell id="euC7mVPJG6KUoin1qul2-24" value="" style="rounded=0;whiteSpace=wrap;html=1;fontSize=16;" vertex="1" parent="1">
          <mxGeometry x="281.3333333333333" y="82.97872340425528" width="85.33333333333333" height="43.40425531914893" as="geometry" />
        </mxCell>
        <mxCell id="euC7mVPJG6KUoin1qul2-25" value="5" style="rounded=0;whiteSpace=wrap;html=1;fillColor=#ffcd28;gradientColor=#ffa500;strokeColor=#d79b00;fontSize=16;" vertex="1" parent="1">
          <mxGeometry x="366.6666666666667" y="82.97872340425528" width="85.33333333333333" height="43.40425531914893" as="geometry" />
        </mxCell>
        <mxCell id="euC7mVPJG6KUoin1qul2-26" style="edgeStyle=none;rounded=0;orthogonalLoop=1;jettySize=auto;html=1;entryX=1;entryY=0;entryDx=0;entryDy=0;fontSize=16;" edge="1" parent="1" source="euC7mVPJG6KUoin1qul2-27" target="euC7mVPJG6KUoin1qul2-7">
          <mxGeometry relative="1" as="geometry" />
        </mxCell>
        <mxCell id="euC7mVPJG6KUoin1qul2-27" value="" style="rounded=0;whiteSpace=wrap;html=1;fontSize=16;" vertex="1" parent="1">
          <mxGeometry x="452" y="82.97872340425528" width="85.33333333333333" height="43.40425531914893" as="geometry" />
        </mxCell>
        <mxCell id="euC7mVPJG6KUoin1qul2-28" value="......." style="rounded=0;whiteSpace=wrap;html=1;fontSize=16;" vertex="1" parent="1">
          <mxGeometry x="590.6666666666666" y="82.97872340425528" width="128" height="43.40425531914893" as="geometry" />
        </mxCell>
        <mxCell id="euC7mVPJG6KUoin1qul2-29" value="1" style="rounded=0;whiteSpace=wrap;html=1;fillColor=#ffcd28;strokeColor=#d79b00;gradientColor=#ffa500;fontSize=16;" vertex="1" parent="1">
          <mxGeometry x="238.66666666666669" y="-123.19148936170214" width="85.33333333333333" height="43.40425531914893" as="geometry" />
        </mxCell>
        <mxCell id="euC7mVPJG6KUoin1qul2-30" style="edgeStyle=none;rounded=0;orthogonalLoop=1;jettySize=auto;html=1;entryX=0.5;entryY=0;entryDx=0;entryDy=0;fontSize=16;" edge="1" parent="1" source="euC7mVPJG6KUoin1qul2-31" target="euC7mVPJG6KUoin1qul2-21">
          <mxGeometry relative="1" as="geometry" />
        </mxCell>
        <mxCell id="euC7mVPJG6KUoin1qul2-31" value="" style="rounded=0;whiteSpace=wrap;html=1;fontSize=16;" vertex="1" parent="1">
          <mxGeometry x="324" y="-123.19148936170214" width="85.33333333333333" height="43.40425531914893" as="geometry" />
        </mxCell>
        <mxCell id="euC7mVPJG6KUoin1qul2-32" value="28" style="rounded=0;whiteSpace=wrap;html=1;fillColor=#ffcd28;strokeColor=#d79b00;gradientColor=#ffa500;fontSize=16;" vertex="1" parent="1">
          <mxGeometry x="409.3333333333333" y="-123.19148936170214" width="85.33333333333333" height="43.40425531914893" as="geometry" />
        </mxCell>
        <mxCell id="euC7mVPJG6KUoin1qul2-33" style="edgeStyle=none;rounded=0;orthogonalLoop=1;jettySize=auto;html=1;entryX=0.5;entryY=0;entryDx=0;entryDy=0;fontSize=16;" edge="1" parent="1" source="euC7mVPJG6KUoin1qul2-34" target="euC7mVPJG6KUoin1qul2-28">
          <mxGeometry relative="1" as="geometry" />
        </mxCell>
        <mxCell id="euC7mVPJG6KUoin1qul2-34" value="" style="rounded=0;whiteSpace=wrap;html=1;fontSize=16;" vertex="1" parent="1">
          <mxGeometry x="494.66666666666663" y="-123.19148936170214" width="85.33333333333333" height="43.40425531914893" as="geometry" />
        </mxCell>
        <mxCell id="euC7mVPJG6KUoin1qul2-35" value="86" style="rounded=0;whiteSpace=wrap;html=1;fillColor=#ffcd28;strokeColor=#d79b00;gradientColor=#ffa500;fontSize=16;" vertex="1" parent="1">
          <mxGeometry x="580" y="-123.19148936170214" width="85.33333333333333" height="43.40425531914893" as="geometry" />
        </mxCell>
        <mxCell id="euC7mVPJG6KUoin1qul2-36" value="" style="rounded=0;whiteSpace=wrap;html=1;fontSize=16;" vertex="1" parent="1">
          <mxGeometry x="665.3333333333334" y="-123.19148936170214" width="85.33333333333333" height="43.40425531914893" as="geometry" />
        </mxCell>
        <mxCell id="euC7mVPJG6KUoin1qul2-37" value="......." style="rounded=0;whiteSpace=wrap;html=1;fontSize=16;" vertex="1" parent="1">
          <mxGeometry x="772" y="82.97872340425528" width="128" height="43.40425531914893" as="geometry" />
        </mxCell>
        <mxCell id="euC7mVPJG6KUoin1qul2-38" style="edgeStyle=none;rounded=0;orthogonalLoop=1;jettySize=auto;html=1;entryX=0.5;entryY=0;entryDx=0;entryDy=0;fontSize=16;" edge="1" parent="1" source="euC7mVPJG6KUoin1qul2-36" target="euC7mVPJG6KUoin1qul2-37">
          <mxGeometry relative="1" as="geometry" />
        </mxCell>
        <mxCell id="euC7mVPJG6KUoin1qul2-39" value="主键索引" style="text;html=1;align=center;verticalAlign=middle;resizable=0;points=[];autosize=1;strokeColor=#36393d;fillColor=#ffff88;fontSize=20;fontStyle=1" vertex="1" parent="1">
          <mxGeometry x="442.00333333333333" y="-175" width="100" height="30" as="geometry" />
        </mxCell>
        <mxCell id="euC7mVPJG6KUoin1qul2-41" value="26" style="rounded=0;whiteSpace=wrap;html=1;fontSize=16;fillColor=#d5e8d4;gradientColor=#97d077;strokeColor=#82b366;" vertex="1" parent="1">
          <mxGeometry x="-60" y="299.995744680851" width="85.33333333333333" height="43.40425531914893" as="geometry" />
        </mxCell>
        <mxCell id="euC7mVPJG6KUoin1qul2-42" value="北京市&lt;br&gt;海淀区" style="rounded=0;whiteSpace=wrap;html=1;fontSize=16;fillColor=#d5e8d4;gradientColor=#97d077;strokeColor=#82b366;" vertex="1" parent="1">
          <mxGeometry x="-60" y="343.39574468085095" width="85.33333333333333" height="43.40425531914893" as="geometry" />
        </mxCell>
        <mxCell id="euC7mVPJG6KUoin1qul2-43" value="18" style="rounded=0;whiteSpace=wrap;html=1;fontSize=16;fillColor=#d5e8d4;gradientColor=#97d077;strokeColor=#82b366;" vertex="1" parent="1">
          <mxGeometry x="25.33" y="299.995744680851" width="85.33333333333333" height="43.40425531914893" as="geometry" />
        </mxCell>
        <mxCell id="euC7mVPJG6KUoin1qul2-44" value="深圳市&lt;br&gt;南山区" style="rounded=0;whiteSpace=wrap;html=1;fontSize=16;fillColor=#d5e8d4;gradientColor=#97d077;strokeColor=#82b366;" vertex="1" parent="1">
          <mxGeometry x="25.33" y="343.39574468085095" width="85.33333333333333" height="43.40425531914893" as="geometry" />
        </mxCell>
        <mxCell id="euC7mVPJG6KUoin1qul2-45" value="30" style="rounded=0;whiteSpace=wrap;html=1;fontSize=16;fillColor=#d5e8d4;gradientColor=#97d077;strokeColor=#82b366;" vertex="1" parent="1">
          <mxGeometry x="196" y="299.995744680851" width="85.33333333333333" height="43.40425531914893" as="geometry" />
        </mxCell>
        <mxCell id="euC7mVPJG6KUoin1qul2-46" value="广州市&lt;br&gt;海珠区" style="rounded=0;whiteSpace=wrap;html=1;fontSize=16;fillColor=#d5e8d4;gradientColor=#97d077;strokeColor=#82b366;" vertex="1" parent="1">
          <mxGeometry x="196" y="343.39574468085095" width="85.33333333333333" height="43.40425531914893" as="geometry" />
        </mxCell>
        <mxCell id="euC7mVPJG6KUoin1qul2-47" value="34" style="rounded=0;whiteSpace=wrap;html=1;fontSize=16;fillColor=#d5e8d4;gradientColor=#97d077;strokeColor=#82b366;" vertex="1" parent="1">
          <mxGeometry x="281.33" y="299.995744680851" width="85.33333333333333" height="43.40425531914893" as="geometry" />
        </mxCell>
        <mxCell id="euC7mVPJG6KUoin1qul2-48" value="深圳市&lt;br&gt;南山区" style="rounded=0;whiteSpace=wrap;html=1;fontSize=16;fillColor=#d5e8d4;gradientColor=#97d077;strokeColor=#82b366;" vertex="1" parent="1">
          <mxGeometry x="281.33" y="343.39574468085095" width="85.33333333333333" height="43.40425531914893" as="geometry" />
        </mxCell>
        <mxCell id="euC7mVPJG6KUoin1qul2-53" value="25" style="rounded=0;whiteSpace=wrap;html=1;fontSize=16;fillColor=#d5e8d4;gradientColor=#97d077;strokeColor=#82b366;" vertex="1" parent="1">
          <mxGeometry x="452" y="299.995744680851" width="85.33333333333333" height="43.40425531914893" as="geometry" />
        </mxCell>
        <mxCell id="euC7mVPJG6KUoin1qul2-54" value="上海市&lt;br&gt;松江区" style="rounded=0;whiteSpace=wrap;html=1;fontSize=16;fillColor=#d5e8d4;gradientColor=#97d077;strokeColor=#82b366;" vertex="1" parent="1">
          <mxGeometry x="452" y="343.39574468085095" width="85.33333333333333" height="43.40425531914893" as="geometry" />
        </mxCell>
        <mxCell id="euC7mVPJG6KUoin1qul2-55" value="28" style="rounded=0;whiteSpace=wrap;html=1;fontSize=16;fillColor=#d5e8d4;gradientColor=#97d077;strokeColor=#82b366;" vertex="1" parent="1">
          <mxGeometry x="537.3299999999999" y="299.995744680851" width="85.33333333333333" height="43.40425531914893" as="geometry" />
        </mxCell>
        <mxCell id="euC7mVPJG6KUoin1qul2-56" value="深圳市&lt;br&gt;宝安区" style="rounded=0;whiteSpace=wrap;html=1;fontSize=16;fillColor=#d5e8d4;gradientColor=#97d077;strokeColor=#82b366;" vertex="1" parent="1">
          <mxGeometry x="537.3299999999999" y="343.39574468085095" width="85.33333333333333" height="43.40425531914893" as="geometry" />
        </mxCell>
      </root>
    </mxGraphModel>
  </diagram>
</mxfile>
